<svg xmlns="http://www.w3.org/2000/svg" width="173.491" height="173.491" viewBox="0 0 173.491 173.491">
  <g id="Group_743" data-name="Group 743" transform="translate(-4689.12 -2253.592)">
    <path id="Path_813" data-name="Path 813" d="M134.514,113.332,42.769,21.587h84.665a7.081,7.081,0,0,1,7.08,7.08Z" transform="translate(4728.097 2232.005)" fill="#fff"/>
    <path id="Path_814" data-name="Path 814" d="M122.427,149.245,42.769,69.587h91.745v74.652a7.08,7.08,0,0,1-12.087,5.006" transform="translate(4728.097 2275.75)" fill="#9500db"/>
    <path id="Path_815" data-name="Path 815" d="M81.746,113.332,2.089,33.674A7.08,7.08,0,0,1,7.095,21.587H81.746Z" transform="translate(4689.12 2232.005)" fill="#9500db"/>
    <path id="Path_816" data-name="Path 816" d="M69.659,149.245,2.089,81.674A7.08,7.08,0,0,1,7.095,69.587H81.746v74.652a7.08,7.08,0,0,1-12.087,5.006" transform="translate(4689.12 2275.75)" fill="#fff"/>
  </g>
</svg>
