<svg id="Group_742" data-name="Group 742" xmlns="http://www.w3.org/2000/svg" xmlns:xlink="http://www.w3.org/1999/xlink" width="1018.311" height="230.343" viewBox="0 0 1018.311 230.343">
  <defs>
    <clipPath id="clip-path">
      <rect id="Rectangle_1169" data-name="Rectangle 1169" width="1018.311" height="230.343" fill="none"/>
    </clipPath>
  </defs>
  <g id="Group_734" data-name="Group 734" clip-path="url(#clip-path)">
    <g id="Group_735" data-name="Group 735" transform="translate(251.725 30.756)">
      <path id="Path_803" data-name="Path 803" d="M256.223,95.751h-92.2q1.136,13.659,9.563,21.4T194.3,124.89q17.758,0,25.27-15.253h34.378A57.469,57.469,0,0,1,233,139.573Q217.519,151.3,194.985,151.3q-18.217,0-32.667-8.081a56.834,56.834,0,0,1-22.539-22.879q-8.082-14.8-8.079-34.148,0-19.576,7.965-34.374a55.629,55.629,0,0,1,22.311-22.766q14.341-7.965,33.009-7.967,17.979,0,32.212,7.739A54.5,54.5,0,0,1,249.279,50.79q7.853,14.229,7.856,32.667a75.566,75.566,0,0,1-.912,12.294m-32.1-21.4q-.227-12.294-8.878-19.691t-21.172-7.4q-11.838,0-19.918,7.169t-9.9,19.92Z" transform="translate(-131.7 19.211)" fill="#fff"/>
      <path id="Path_804" data-name="Path 804" d="M213.154,51.927a56.933,56.933,0,0,1,22.082-22.764q14.114-8.079,32.325-8.081,23.449,0,38.816,11.722t20.6,32.9H292.6a25.138,25.138,0,0,0-9.22-12.862q-6.488-4.665-16.048-4.668-13.658,0-21.627,9.9t-7.97,28.114q0,17.988,7.97,27.887t21.627,9.9q19.347,0,25.268-17.3h34.378q-5.244,20.488-20.719,32.554t-38.7,12.064q-18.215,0-32.325-8.081a56.914,56.914,0,0,1-22.082-22.766q-7.973-14.682-7.968-34.261t7.968-34.261" transform="translate(-64.727 19.211)" fill="#fff"/>
      <path id="Path_805" data-name="Path 805" d="M400.778,22.154V148.271h-32.1V132.336A42.016,42.016,0,0,1,352.631,145.2a49.854,49.854,0,0,1-21.515,4.668q-14.8,0-26.18-6.26a44.1,44.1,0,0,1-17.869-18.441q-6.491-12.176-6.489-29.024V22.154h31.87V91.588q0,15.023,7.513,23.106t20.49,8.081q13.2,0,20.713-8.081t7.513-23.106V22.154Z" transform="translate(3.983 20.188)" fill="#fff"/>
      <path id="Path_806" data-name="Path 806" d="M408.732,45.986a52.258,52.258,0,0,1,24.7-5.692,55.165,55.165,0,0,1,29.253,7.968A56.087,56.087,0,0,1,483.4,70.914q7.626,14.682,7.628,34.032T483.4,139.209a57.384,57.384,0,0,1-20.716,23.106,54.014,54.014,0,0,1-29.253,8.194q-14.117,0-24.7-5.577a47.927,47.927,0,0,1-16.959-14.456V168.46H359.9V0h31.872V60.782a45.6,45.6,0,0,1,16.959-14.8m45.075,39.269a32.347,32.347,0,0,0-12.294-12.634,32.911,32.911,0,0,0-16.5-4.325,31.837,31.837,0,0,0-16.279,4.438A32.951,32.951,0,0,0,396.438,85.6a40.223,40.223,0,0,0-4.666,19.805,40.213,40.213,0,0,0,4.666,19.805,32.92,32.92,0,0,0,12.294,12.861,32.124,32.124,0,0,0,32.781-.113,33.815,33.815,0,0,0,12.294-12.976q4.662-8.42,4.666-20.035,0-11.379-4.666-19.691" transform="translate(76.273 -0.001)" fill="#fff"/>
      <path id="Path_807" data-name="Path 807" d="M560.891,95.751h-92.2q1.135,13.659,9.562,21.4t20.713,7.741q17.759,0,25.27-15.253h34.377a57.471,57.471,0,0,1-20.945,29.936Q522.187,151.3,499.653,151.3q-18.218,0-32.667-8.081a56.834,56.834,0,0,1-22.539-22.879q-8.082-14.8-8.079-34.148,0-19.576,7.965-34.374a55.626,55.626,0,0,1,22.311-22.766q14.341-7.965,33.009-7.967,17.979,0,32.212,7.739A54.505,54.505,0,0,1,553.947,50.79Q561.8,65.019,561.8,83.457a75.567,75.567,0,0,1-.912,12.294m-32.1-21.4q-.227-12.294-8.878-19.691t-21.172-7.4q-11.839,0-19.919,7.169t-9.9,19.92Z" transform="translate(145.961 19.211)" fill="#fff"/>
      <path id="Path_808" data-name="Path 808" d="M551.907,87.656a20.069,20.069,0,1,1-20.069-20.069,20.069,20.069,0,0,1,20.069,20.069" transform="translate(214.679 61.594)" fill="#9500db"/>
    </g>
    <path id="Path_809" data-name="Path 809" d="M134.514,113.332,42.769,21.587h84.665a7.081,7.081,0,0,1,7.08,7.08Z" transform="translate(38.978 19.673)" fill="#fff"/>
    <path id="Path_810" data-name="Path 810" d="M122.427,149.245,42.769,69.587h91.745v74.652a7.08,7.08,0,0,1-12.087,5.006" transform="translate(38.978 63.418)" fill="#9500db"/>
    <path id="Path_811" data-name="Path 811" d="M81.746,113.332,2.089,33.674A7.08,7.08,0,0,1,7.095,21.587H81.746Z" transform="translate(0 19.673)" fill="#9500db"/>
    <path id="Path_812" data-name="Path 812" d="M69.659,149.245,2.089,81.674A7.08,7.08,0,0,1,7.095,69.587H81.746v74.652a7.08,7.08,0,0,1-12.087,5.006" transform="translate(0 63.418)" fill="#fff"/>
  </g>
</svg>
