<svg xmlns="http://www.w3.org/2000/svg" xmlns:xlink="http://www.w3.org/1999/xlink" width="135.224" height="52.779" viewBox="0 0 135.224 52.779">
  <defs>
    <clipPath id="clip-path">
      <rect id="Rectangle_4" data-name="Rectangle 4" width="135.224" height="52.779" fill="#fff"/>
    </clipPath>
  </defs>
  <g id="Group_1" data-name="Group 1" clip-path="url(#clip-path)">
    <path id="Path_1" data-name="Path 1" d="M314.07,164.966a2.139,2.139,0,0,1,.907.857,2.58,2.58,0,0,1,.32,1.3,2.52,2.52,0,0,1-.32,1.293,2.111,2.111,0,0,1-.907.84,3.035,3.035,0,0,1-1.367.292h-1.6v-4.884h1.6a2.973,2.973,0,0,1,1.367.3m-.053,3.468a1.784,1.784,0,0,0,.457-1.307,1.844,1.844,0,0,0-.457-1.328,1.734,1.734,0,0,0-1.314-.478h-.794V168.9h.794a1.764,1.764,0,0,0,1.314-.464" transform="translate(-238.699 -126.342)" fill="#262626"/>
    <rect id="Rectangle_1" data-name="Rectangle 1" width="0.801" height="4.884" transform="translate(78.094 38.326)" fill="#262626"/>
    <path id="Path_2" data-name="Path 2" d="M349.181,165.865a1.288,1.288,0,0,0-.527-.552,1.588,1.588,0,0,0-.78-.186,1.7,1.7,0,0,0-.864.218,1.524,1.524,0,0,0-.594.618,1.935,1.935,0,0,0-.214.927,1.957,1.957,0,0,0,.214.931,1.517,1.517,0,0,0,.594.622,1.7,1.7,0,0,0,.864.218,1.529,1.529,0,0,0,1.061-.366,1.591,1.591,0,0,0,.5-.991H347.6v-.639h2.691v.626a2.413,2.413,0,0,1-2.418,2.094,2.524,2.524,0,0,1-1.258-.32,2.384,2.384,0,0,1-.9-.889,2.643,2.643,0,0,1,0-2.572,2.375,2.375,0,0,1,.906-.889,2.665,2.665,0,0,1,2.643.063,2.182,2.182,0,0,1,.882,1.086Z" transform="translate(-264.994 -126.134)" fill="#262626"/>
    <rect id="Rectangle_2" data-name="Rectangle 2" width="0.801" height="4.884" transform="translate(86.787 38.326)" fill="#262626"/>
    <path id="Path_3" data-name="Path 3" d="M386.2,164.668v.654h-1.3v4.23h-.8v-4.23H382.79v-.654Z" transform="translate(-293.698 -126.342)" fill="#262626"/>
    <path id="Path_4" data-name="Path 4" d="M405.921,168.53h-2.045l-.351,1h-.836l1.75-4.891h.928l1.75,4.891h-.843Zm-.225-.654-.794-2.27-.8,2.27Z" transform="translate(-308.965 -126.319)" fill="#262626"/>
    <path id="Path_5" data-name="Path 5" d="M428.794,168.905h1.652v.647h-2.453v-4.884h.8Z" transform="translate(-328.38 -126.342)" fill="#262626"/>
    <path id="Path_6" data-name="Path 6" d="M460.432,164.668v4.884h-.8v-3.345l-1.49,3.345h-.555l-1.5-3.345v3.345h-.8v-4.884h.864l1.715,3.83,1.708-3.83Z" transform="translate(-349.322 -126.342)" fill="#262626"/>
    <path id="Path_7" data-name="Path 7" d="M485.741,165.291v1.433h1.686v.654h-1.686v1.5h1.9v.654h-2.7v-4.891h2.7v.654Z" transform="translate(-372.073 -126.319)" fill="#262626"/>
    <path id="Path_8" data-name="Path 8" d="M506.743,164.966a2.139,2.139,0,0,1,.907.857,2.58,2.58,0,0,1,.32,1.3,2.52,2.52,0,0,1-.32,1.293,2.111,2.111,0,0,1-.907.84,3.035,3.035,0,0,1-1.367.292h-1.6v-4.884h1.6a2.973,2.973,0,0,1,1.367.3m-.053,3.468a1.784,1.784,0,0,0,.457-1.307,1.844,1.844,0,0,0-.457-1.328,1.734,1.734,0,0,0-1.314-.478h-.794V168.9h.794a1.764,1.764,0,0,0,1.314-.464" transform="translate(-386.529 -126.342)" fill="#262626"/>
    <rect id="Rectangle_3" data-name="Rectangle 3" width="0.801" height="4.884" transform="translate(122.937 38.326)" fill="#262626"/>
    <path id="Path_9" data-name="Path 9" d="M541.194,168.53h-2.045l-.351,1h-.836l1.75-4.891h.928l1.75,4.891h-.843Zm-.225-.654-.794-2.27-.8,2.27Z" transform="translate(-412.754 -126.319)" fill="#262626"/>
    <path id="Path_10" data-name="Path 10" d="M11.637,56.309V80.892L1.82,75.665A3.434,3.434,0,0,1,0,72.634V52.365a1.508,1.508,0,0,1,2.245-1.316Z" transform="translate(0 -39.019)" fill="#9370db"/>
    <path id="Path_11" data-name="Path 11" d="M50,17.29l17.07-5.834a1.947,1.947,0,0,0,1.317-1.842V1A1,1,0,0,0,67.068.055L50.9,5.609A1.328,1.328,0,0,0,50,6.864Z" transform="translate(-38.363 0)" fill="#b199e3"/>
    <path id="Path_12" data-name="Path 12" d="M51.178,170.887l15.891-5.431a1.947,1.947,0,0,0,1.317-1.842V155a1,1,0,0,0-1.319-.942L50,159.916v10.128a.89.89,0,0,0,1.178.843" transform="translate(-38.363 -118.157)" fill="#b199e3"/>
    <path id="Path_13" data-name="Path 13" d="M159.3,78.993H146.357a4.7,4.7,0,0,0,1.507,3.259,4.754,4.754,0,0,0,3.32,1.23,4.1,4.1,0,0,0,4-2.367h3.781a7.63,7.63,0,0,1-2.782,3.827,8.161,8.161,0,0,1-5,1.491,8.649,8.649,0,0,1-4.35-1.091,7.761,7.761,0,0,1-3.013-3.074,9.378,9.378,0,0,1-1.091-4.6,9.6,9.6,0,0,1,1.061-4.6,7.459,7.459,0,0,1,2.982-3.059,8.875,8.875,0,0,1,4.411-1.076,8.629,8.629,0,0,1,4.273,1.045,7.39,7.39,0,0,1,2.92,2.936,8.847,8.847,0,0,1,1.045,4.35,10.984,10.984,0,0,1-.123,1.721m-3.535-2.828a3.989,3.989,0,0,0-1.383-3.1,4.947,4.947,0,0,0-3.351-1.168,4.5,4.5,0,0,0-3.1,1.153,4.817,4.817,0,0,0-1.537,3.12Z" transform="translate(-109.51 -52.895)" fill="#262626"/>
    <path id="Path_14" data-name="Path 14" d="M225.285,73.076a7.546,7.546,0,0,1,2.936-3.059,9.385,9.385,0,0,1,9.391.384,7.194,7.194,0,0,1,2.721,4.165h-3.781a4,4,0,0,0-1.476-1.967,4.358,4.358,0,0,0-2.552-.707,4.242,4.242,0,0,0-3.427,1.522,6.437,6.437,0,0,0-1.276,4.258,6.5,6.5,0,0,0,1.276,4.273,4.223,4.223,0,0,0,3.427,1.537,3.89,3.89,0,0,0,4.027-2.674h3.781a7.57,7.57,0,0,1-2.767,4.1,8.167,8.167,0,0,1-5.042,1.522,8.4,8.4,0,0,1-4.3-1.091,7.646,7.646,0,0,1-2.936-3.074,10.487,10.487,0,0,1,0-9.192" transform="translate(-172.037 -52.895)" fill="#262626"/>
    <path id="Path_15" data-name="Path 15" d="M323.324,70.13V87.068h-3.5v-2a5.674,5.674,0,0,1-2.167,1.645,6.873,6.873,0,0,1-2.843.6,7.6,7.6,0,0,1-3.581-.83,5.992,5.992,0,0,1-2.49-2.459,7.974,7.974,0,0,1-.907-3.935V70.13H311.3v9.437a4.915,4.915,0,0,0,1.138,3.489,4.046,4.046,0,0,0,3.1,1.214,4.1,4.1,0,0,0,3.12-1.214,4.874,4.874,0,0,0,1.153-3.489V70.13Z" transform="translate(-236.185 -53.808)" fill="#262626"/>
    <path id="Path_16" data-name="Path 16" d="M400.159,51.484a7.563,7.563,0,0,1,3.458-.784,7.805,7.805,0,0,1,4.058,1.076,7.575,7.575,0,0,1,2.859,3.059,9.583,9.583,0,0,1,1.045,4.534,9.766,9.766,0,0,1-1.045,4.565,7.813,7.813,0,0,1-2.874,3.136,8.047,8.047,0,0,1-7.531.354,6.7,6.7,0,0,1-2.413-1.967v2.459h-3.5V45.167h3.5V53.5a6.65,6.65,0,0,1,2.444-2.014m7.132,4.857a4.957,4.957,0,0,0-1.906-1.937,5.123,5.123,0,0,0-2.536-.661,4.974,4.974,0,0,0-2.505.676,5.034,5.034,0,0,0-1.906,1.967,6.131,6.131,0,0,0-.722,3.043,6.219,6.219,0,0,0,.722,3.059,5,5,0,0,0,4.411,2.659,4.944,4.944,0,0,0,2.536-.692,5.1,5.1,0,0,0,1.906-2.013,6.312,6.312,0,0,0,.722-3.074,6.05,6.05,0,0,0-.722-3.028" transform="translate(-302.461 -34.655)" fill="#262626"/>
    <path id="Path_17" data-name="Path 17" d="M495.311,78.993H482.369a4.7,4.7,0,0,0,1.507,3.259,4.754,4.754,0,0,0,3.32,1.23,4.1,4.1,0,0,0,4-2.367h3.781a7.63,7.63,0,0,1-2.782,3.827,8.161,8.161,0,0,1-5,1.491,8.649,8.649,0,0,1-4.35-1.091,7.762,7.762,0,0,1-3.013-3.074,9.378,9.378,0,0,1-1.091-4.6,9.6,9.6,0,0,1,1.061-4.6,7.459,7.459,0,0,1,2.982-3.059,8.875,8.875,0,0,1,4.411-1.076,8.629,8.629,0,0,1,4.273,1.045,7.389,7.389,0,0,1,2.92,2.936,8.847,8.847,0,0,1,1.045,4.35,10.988,10.988,0,0,1-.123,1.721m-3.535-2.828a3.989,3.989,0,0,0-1.383-3.1,4.947,4.947,0,0,0-3.351-1.168,4.5,4.5,0,0,0-3.1,1.153,4.817,4.817,0,0,0-1.537,3.12Z" transform="translate(-367.318 -52.895)" fill="#262626"/>
    <path id="Path_18" data-name="Path 18" d="M567.113,126.611a2.106,2.106,0,1,1-2.106-2.106,2.106,2.106,0,0,1,2.106,2.106" transform="translate(-431.889 -95.527)" fill="#9370db"/>
  </g>
</svg>
